<?xml version="1.0" encoding="utf-8"?>
<!-- Generator: Adobe Illustrator 18.1.0, SVG Export Plug-In . SVG Version: 6.00 Build 0)  -->
<svg version="1.1" id="Layer_1" xmlns="http://www.w3.org/2000/svg" xmlns:xlink="http://www.w3.org/1999/xlink" x="0px" y="0px"
	 viewBox="0 0 1024 1024" enable-background="new 0 0 1024 1024" xml:space="preserve">
<g id="not_connected">
	<g id="_x33_">
		<g>
			<g>
				<path fill="#736357" d="M408.7,347.9c0,0,133.4,118.7,135.1,120.4c1.7,1.7,9.8,7.7,19.8-2.4c10.1-10.1,3.8-17.6,2.3-19
					c-1.4-1.4-120.6-135.1-120.6-135.1L408.7,347.9z"/>
				<polygon fill="#4BA59C" points="432.3,368.9 466.1,335 470.4,339.8 437,373.2 				"/>
				
					<ellipse transform="matrix(-0.7082 -0.706 0.706 -0.7082 538.9144 968.8637)" fill="#44978F" cx="469.7" cy="373.1" rx="11.4" ry="6.3"/>
				<path fill="#603813" d="M472.8,370c3.1,3.1,4.3,7.1,2.5,8.8c-1.7,1.7-5.7,0.6-8.8-2.5c-3.1-3.1-4.3-7.1-2.5-8.8
					C465.7,365.7,469.7,366.9,472.8,370z"/>
				<path fill="#44978F" d="M432.7,263.5c13.1,13.1,17.5,31.6,13.2,48.3c0,0.2-0.1,0.4-0.1,0.5c-12.4,12.5-27.7,26.6-37,35.9
					c-16.4,3.9-34.4-0.6-47.2-13.3c-19.7-19.6-19.8-51.5-0.1-71.2C381.1,243.9,413,243.8,432.7,263.5z"/>
				<g>
					<g>
						<defs>
							<path id="SVGID_1_" d="M432.7,263.5c13.1,13.1,17.5,31.6,13.2,48.3c0,0.2-0.1,0.4-0.1,0.5c-12.4,12.5-27.7,26.6-37,35.9
								c-16.4,3.9-34.4-0.6-47.2-13.3c-19.7-19.6-19.8-51.5-0.1-71.2C381.1,243.9,413,243.8,432.7,263.5z"/>
						</defs>
						<clipPath id="SVGID_2_">
							<use xlink:href="#SVGID_1_"  overflow="visible"/>
						</clipPath>
						<g clip-path="url(#SVGID_2_)">
							<polygon fill="#44978F" points="445.4,311.9 409.1,348.3 403.7,343.2 440.3,306.4 							"/>
							
								<rect x="333.8" y="293.7" transform="matrix(0.706 -0.7082 0.7082 0.706 -97.1755 371.3625)" fill="#F15A24" width="129.9" height="18"/>
							<g>
								<g>
									<circle fill="#418D85" cx="355" cy="325.6" r="2.9"/>
									<circle fill="#418D85" cx="364.7" cy="315.8" r="2.9"/>
									<circle fill="#418D85" cx="374.4" cy="306" r="2.9"/>
									<circle fill="#418D85" cx="384.2" cy="296.3" r="2.9"/>
									<circle fill="#418D85" cx="393.9" cy="286.5" r="2.9"/>
									<circle fill="#418D85" cx="403.6" cy="276.8" r="2.9"/>
									<circle fill="#418D85" cx="413.4" cy="267" r="2.9"/>
								</g>
								<g>
									<path fill="#418D85" d="M415.3,264.9c1.1,1.1,1.1,2.9,0,4.1c-1.1,1.1-2.9,1.1-4.1,0c-1.1-1.1-1.1-2.9,0-4.1
										C412.4,263.8,414.2,263.8,415.3,264.9z"/>
									<circle fill="#418D85" cx="423" cy="257.2" r="2.9"/>
								</g>
								<g>
									<circle fill="#418D85" cx="355" cy="314.3" r="2.9"/>
									<circle fill="#418D85" cx="364.7" cy="304.6" r="2.9"/>
									<circle fill="#418D85" cx="374.4" cy="294.8" r="2.9"/>
									<circle fill="#418D85" cx="384.1" cy="285.1" r="2.9"/>
									<path fill="#418D85" d="M395.9,273.3c1.1,1.1,1.1,2.9,0,4.1c-1.1,1.1-2.9,1.1-4.1,0c-1.1-1.1-1.1-2.9,0-4.1
										C393,272.1,394.8,272.1,395.9,273.3z"/>
									<circle fill="#418D85" cx="403.6" cy="265.5" r="2.9"/>
									<path fill="#418D85" d="M415.4,253.7c1.1,1.1,1.1,2.9,0,4.1c-1.1,1.1-2.9,1.1-4.1,0c-1.1-1.1-1.1-2.9,0-4.1
										C412.4,252.6,414.2,252.6,415.4,253.7z"/>
								</g>
								<g>
									<circle fill="#418D85" cx="354.2" cy="304.4" r="2.9"/>
									<circle fill="#418D85" cx="364" cy="294.6" r="2.9"/>
									<circle fill="#418D85" cx="373.7" cy="284.9" r="2.9"/>
									<circle fill="#418D85" cx="383.4" cy="275.1" r="2.9"/>
									<circle fill="#418D85" cx="393.2" cy="265.3" r="2.9"/>
									<circle fill="#418D85" cx="402.9" cy="255.6" r="2.9"/>
								</g>
								<g>
									<circle fill="#418D85" cx="344.2" cy="303.4" r="2.9"/>
									<circle fill="#418D85" cx="353.9" cy="293.6" r="2.9"/>
									<circle fill="#418D85" cx="363.7" cy="283.8" r="2.9"/>
									<circle fill="#418D85" cx="373.4" cy="274.1" r="2.9"/>
									<circle fill="#418D85" cx="383.1" cy="264.3" r="2.9"/>
									<circle fill="#418D85" cx="392.9" cy="254.5" r="2.9"/>
								</g>
								<g>
									<circle fill="#418D85" cx="353.2" cy="283.6" r="2.9"/>
									<circle fill="#418D85" cx="363" cy="273.9" r="2.9"/>
									<circle fill="#418D85" cx="372.7" cy="264.1" r="2.9"/>
									<circle fill="#418D85" cx="382.4" cy="254.3" r="2.9"/>
								</g>
								<g>
									<circle fill="#418D85" cx="353.3" cy="273.4" r="2.9"/>
									<circle fill="#418D85" cx="363.1" cy="263.6" r="2.9"/>
									<circle fill="#418D85" cx="372.8" cy="253.9" r="2.9"/>
								</g>
							</g>
							<g>
								<g>
									<circle fill="#418D85" cx="443.9" cy="278.6" r="2.9"/>
									<circle fill="#418D85" cx="434.2" cy="288.4" r="2.9"/>
									<circle fill="#418D85" cx="424.4" cy="298.1" r="2.9"/>
									<circle fill="#418D85" cx="414.7" cy="307.9" r="2.9"/>
									<circle fill="#418D85" cx="405" cy="317.7" r="2.9"/>
									<circle fill="#418D85" cx="395.3" cy="327.4" r="2.9"/>
									<circle fill="#418D85" cx="385.5" cy="337.2" r="2.9"/>
								</g>
								<g>
									<circle fill="#418D85" cx="385.6" cy="337.3" r="2.9"/>
									<circle fill="#418D85" cx="375.9" cy="347" r="2.9"/>
								</g>
								<g>
									<circle fill="#418D85" cx="443.9" cy="289.8" r="2.9"/>
									<circle fill="#418D85" cx="434.2" cy="299.6" r="2.9"/>
									<circle fill="#418D85" cx="424.5" cy="309.4" r="2.9"/>
									<circle fill="#418D85" cx="414.7" cy="319.1" r="2.9"/>
									<circle fill="#418D85" cx="405" cy="328.9" r="2.9"/>
									<circle fill="#418D85" cx="395.3" cy="338.6" r="2.9"/>
									<circle fill="#418D85" cx="385.5" cy="348.4" r="2.9"/>
								</g>
								<g>
									<circle fill="#418D85" cx="444.6" cy="299.8" r="2.9"/>
									<circle fill="#418D85" cx="434.9" cy="309.6" r="2.9"/>
									<circle fill="#418D85" cx="425.2" cy="319.3" r="2.9"/>
									<circle fill="#418D85" cx="415.5" cy="329.1" r="2.9"/>
									<circle fill="#418D85" cx="405.7" cy="338.8" r="2.9"/>
									<circle fill="#418D85" cx="396" cy="348.6" r="2.9"/>
								</g>
								<g>
									<circle fill="#418D85" cx="444.9" cy="310.6" r="2.9"/>
									<circle fill="#418D85" cx="435.2" cy="320.4" r="2.9"/>
									<circle fill="#418D85" cx="425.5" cy="330.1" r="2.9"/>
									<circle fill="#418D85" cx="415.8" cy="339.9" r="2.9"/>
									<circle fill="#418D85" cx="406" cy="349.6" r="2.9"/>
								</g>
							</g>
						</g>
					</g>
				</g>
				<polygon fill="#3E877F" points="406.7,348.6 411.7,350.5 447.7,314.4 446.5,308.9 				"/>
			</g>
		</g>
	</g>
</g>
<g id="off">
	<g id="_x32__2_">
		<g id="_x32__3_">
			<g>
				<path fill="#998675" d="M403.6,345.1c0,0,137.3,122.3,139,124c1.7,1.7,10.1,7.9,20.4-2.5c10.3-10.4,3.9-18.2,2.4-19.6
					c-1.4-1.4-124.1-139.2-124.1-139.2L403.6,345.1z"/>
				<polygon fill="#4BA59C" points="427.9,366.8 462.7,331.8 467,336.7 432.7,371.2 				"/>
				<path fill="#44978F" d="M470.9,366.5c4.6,4.6,6.3,10.4,3.7,13c-2.5,2.6-8.3,0.9-12.9-3.7s-6.3-10.4-3.7-13
					C460.5,360.2,466.3,361.9,470.9,366.5z"/>
				<path d="M469.5,367.9c3.2,3.2,4.4,7.3,2.6,9.1c-1.8,1.8-5.8,0.6-9.1-2.6c-3.2-3.2-4.4-7.3-2.6-9.1
					C462.3,363.5,466.3,364.7,469.5,367.9z"/>
				<path fill="#44978F" d="M428.3,258.1c13.5,13.5,18,32.5,13.6,49.7c0,0.2-0.1,0.4-0.1,0.5c-12.8,12.8-28.6,27.4-38.1,37
					c-16.9,4-35.4-0.6-48.6-13.8c-20.3-20.2-20.3-53.1-0.1-73.4C375.2,237.9,408,237.9,428.3,258.1z"/>
				<g>
					<g>
						<defs>
							<path id="SVGID_3_" d="M428.3,258.1c13.5,13.5,18,32.5,13.6,49.7c0,0.2-0.1,0.4-0.1,0.5c-12.8,12.8-28.6,27.4-38.1,37
								c-16.9,4-35.4-0.6-48.6-13.8c-20.3-20.2-20.3-53.1-0.1-73.4C375.2,237.9,408,237.9,428.3,258.1z"/>
						</defs>
						<clipPath id="SVGID_4_">
							<use xlink:href="#SVGID_3_"  overflow="visible"/>
						</clipPath>
						<g clip-path="url(#SVGID_4_)">
							<polygon fill="#44978F" points="441.4,308 404,345.6 398.4,340.3 436.1,302.3 							"/>
							<polygon fill="#662D91" points="339.5,339.5 433.9,244.7 447,257.8 352.6,352.6 							"/>
							<g>
								<g>
									<path fill="#418D85" d="M350.4,320c1.2,1.2,1.2,3,0,4.2s-3,1.2-4.2,0s-1.2-3,0-4.2C347.3,318.9,349.2,318.9,350.4,320z"/>
									<path fill="#418D85" d="M360.4,310c1.2,1.2,1.2,3,0,4.2s-3,1.2-4.2,0s-1.2-3,0-4.2C357.3,308.8,359.2,308.8,360.4,310z"/>
									<circle fill="#418D85" cx="368.3" cy="302" r="3"/>
									<path fill="#418D85" d="M380.4,289.8c1.2,1.2,1.2,3,0,4.2s-3,1.2-4.2,0s-1.2-3,0-4.2C377.4,288.7,379.2,288.7,380.4,289.8z
										"/>
									<circle fill="#418D85" cx="388.3" cy="281.9" r="3"/>
									<path fill="#418D85" d="M400.4,269.7c1.2,1.2,1.2,3,0,4.2s-3,1.2-4.2,0s-1.2-3,0-4.2C397.4,268.6,399.3,268.6,400.4,269.7z
										"/>
									<path fill="#418D85" d="M410.4,259.7c1.2,1.2,1.2,3,0,4.2s-3,1.2-4.2,0s-1.2-3,0-4.2S409.3,258.5,410.4,259.7z"/>
								</g>
								<g>
									<path fill="#418D85" d="M410.4,259.6c1.2,1.2,1.2,3,0,4.2s-3,1.2-4.2,0s-1.2-3,0-4.2C407.3,258.4,409.2,258.4,410.4,259.6z
										"/>
									<path fill="#418D85" d="M420.4,249.5c1.2,1.2,1.2,3,0,4.2s-3,1.2-4.2,0s-1.2-3,0-4.2C417.4,248.4,419.2,248.4,420.4,249.5z
										"/>
								</g>
								<g>
									<path fill="#418D85" d="M350.3,308.5c1.2,1.2,1.2,3,0,4.2s-3,1.2-4.2,0s-1.2-3,0-4.2S349.2,307.3,350.3,308.5z"/>
									<path fill="#418D85" d="M360.4,298.4c1.2,1.2,1.2,3,0,4.2s-3,1.2-4.2,0s-1.2-3,0-4.2C357.3,297.3,359.2,297.3,360.4,298.4z
										"/>
									<circle fill="#418D85" cx="368.3" cy="290.4" r="3"/>
									<path fill="#418D85" d="M380.4,278.3c1.2,1.2,1.2,3,0,4.2s-3,1.2-4.2,0s-1.2-3,0-4.2C377.4,277.1,379.2,277.1,380.4,278.3z
										"/>
									<path fill="#418D85" d="M390.4,268.2c1.2,1.2,1.2,3,0,4.2s-3,1.2-4.2,0s-1.2-3,0-4.2C387.4,267.1,389.2,267.1,390.4,268.2z
										"/>
									<path fill="#418D85" d="M400.4,258.2c1.2,1.2,1.2,3,0,4.2s-3,1.2-4.2,0s-1.2-3,0-4.2S399.3,257,400.4,258.2z"/>
									<path fill="#418D85" d="M410.4,248.1c1.2,1.2,1.2,3,0,4.2s-3,1.2-4.2,0s-1.2-3,0-4.2C407.4,247,409.3,247,410.4,248.1z"/>
								</g>
								<g>
									<path fill="#418D85" d="M349.6,298.2c1.2,1.2,1.2,3,0,4.2s-3,1.2-4.2,0s-1.2-3,0-4.2C346.6,297.1,348.4,297.1,349.6,298.2z
										"/>
									<path fill="#418D85" d="M359.6,288.1c1.2,1.2,1.2,3,0,4.2s-3,1.2-4.2,0s-1.2-3,0-4.2C356.6,287,358.5,287,359.6,288.1z"/>
									<path fill="#418D85" d="M369.6,278.1c1.2,1.2,1.2,3,0,4.2s-3,1.2-4.2,0s-1.2-3,0-4.2S368.5,276.9,369.6,278.1z"/>
									<path fill="#418D85" d="M379.6,268c1.2,1.2,1.2,3,0,4.2s-3,1.2-4.2,0s-1.2-3,0-4.2C376.6,266.9,378.5,266.9,379.6,268z"/>
									<path fill="#418D85" d="M389.7,258c1.2,1.2,1.2,3,0,4.2s-3,1.2-4.2,0s-1.2-3,0-4.2C386.6,256.8,388.5,256.8,389.7,258z"/>
									<path fill="#418D85" d="M399.7,247.9c1.2,1.2,1.2,3,0,4.2s-3,1.2-4.2,0s-1.2-3,0-4.2C396.6,246.8,398.5,246.8,399.7,247.9z
										"/>
								</g>
								<g>
									<path fill="#418D85" d="M339.3,297.1c1.2,1.2,1.2,3,0,4.2s-3,1.2-4.2,0s-1.2-3,0-4.2C336.3,296,338.1,296,339.3,297.1z"/>
									<path fill="#418D85" d="M349.3,287.1c1.2,1.2,1.2,3,0,4.2s-3,1.2-4.2,0s-1.2-3,0-4.2S348.1,285.9,349.3,287.1z"/>
									<path fill="#418D85" d="M359.3,277c1.2,1.2,1.2,3,0,4.2s-3,1.2-4.2,0s-1.2-3,0-4.2C356.3,275.9,358.2,275.9,359.3,277z"/>
									<path fill="#418D85" d="M369.3,267c1.2,1.2,1.2,3,0,4.2s-3,1.2-4.2,0s-1.2-3,0-4.2S368.2,265.8,369.3,267z"/>
									<circle fill="#418D85" cx="377.3" cy="259" r="3"/>
									<path fill="#418D85" d="M389.4,246.8c1.2,1.2,1.2,3,0,4.2s-3,1.2-4.2,0s-1.2-3,0-4.2C386.3,245.7,388.2,245.7,389.4,246.8z
										"/>
								</g>
								<g>
									<circle fill="#418D85" cx="346.5" cy="278.9" r="3"/>
									<path fill="#418D85" d="M358.6,266.8c1.2,1.2,1.2,3,0,4.2s-3,1.2-4.2,0s-1.2-3,0-4.2C355.5,265.6,357.4,265.6,358.6,266.8z
										"/>
									<path fill="#418D85" d="M368.6,256.7c1.2,1.2,1.2,3,0,4.2s-3,1.2-4.2,0s-1.2-3,0-4.2C365.6,255.6,367.4,255.5,368.6,256.7z
										"/>
									<path fill="#418D85" d="M378.6,246.6c1.2,1.2,1.2,3,0,4.2s-3,1.2-4.2,0s-1.2-3,0-4.2C375.6,245.5,377.4,245.5,378.6,246.6z
										"/>
								</g>
								<g>
									<path fill="#418D85" d="M348.7,266.3c1.2,1.2,1.2,3,0,4.2s-3,1.2-4.2,0s-1.2-3,0-4.2C345.7,265.1,347.5,265.1,348.7,266.3z
										"/>
									<path fill="#418D85" d="M358.7,256.2c1.2,1.2,1.2,3,0,4.2s-3,1.2-4.2,0s-1.2-3,0-4.2C355.7,255.1,357.5,255.1,358.7,256.2z
										"/>
									<circle fill="#418D85" cx="366.6" cy="248.3" r="3"/>
								</g>
							</g>
							<g>
								<g>
									<path fill="#418D85" d="M437.7,275.8c-1.2-1.2-1.2-3,0-4.2s3-1.2,4.2,0s1.2,3,0,4.2S438.9,277,437.7,275.8z"/>
									<path fill="#418D85" d="M427.7,285.9c-1.2-1.2-1.2-3,0-4.2s3-1.2,4.2,0s1.2,3,0,4.2S428.9,287.1,427.7,285.9z"/>
									<path fill="#418D85" d="M417.7,296c-1.2-1.2-1.2-3,0-4.2s3-1.2,4.2,0s1.2,3,0,4.2C420.7,297.1,418.8,297.1,417.7,296z"/>
									<path fill="#418D85" d="M407.7,306c-1.2-1.2-1.2-3,0-4.2s3-1.2,4.2,0s1.2,3,0,4.2S408.8,307.2,407.7,306z"/>
									<path fill="#418D85" d="M397.7,316.1c-1.2-1.2-1.2-3,0-4.2s3-1.2,4.2,0s1.2,3,0,4.2C400.7,317.2,398.8,317.2,397.7,316.1z"
										/>
									<circle fill="#418D85" cx="389.7" cy="324" r="3"/>
									<path fill="#418D85" d="M377.6,336.2c-1.2-1.2-1.2-3,0-4.2s3-1.2,4.2,0s1.2,3,0,4.2C380.7,337.4,378.8,337.4,377.6,336.2z"
										/>
								</g>
								<g>
									<path fill="#418D85" d="M377.7,336.3c-1.2-1.2-1.2-3,0-4.2s3-1.2,4.2,0s1.2,3,0,4.2C380.7,337.4,378.9,337.4,377.7,336.3z"
										/>
									<path fill="#418D85" d="M367.7,346.3c-1.2-1.2-1.2-3,0-4.2s3-1.2,4.2,0s1.2,3,0,4.2S368.8,347.5,367.7,346.3z"/>
								</g>
								<g>
									<path fill="#418D85" d="M437.7,287.4c-1.2-1.2-1.2-3,0-4.2s3-1.2,4.2,0s1.2,3,0,4.2C440.8,288.6,438.9,288.6,437.7,287.4z"
										/>
									<circle fill="#418D85" cx="429.8" cy="295.4" r="3"/>
									<path fill="#418D85" d="M417.7,307.5c-1.2-1.2-1.2-3,0-4.2s3-1.2,4.2,0s1.2,3,0,4.2S418.9,308.7,417.7,307.5z"/>
									<circle fill="#418D85" cx="409.8" cy="315.5" r="3"/>
									<path fill="#418D85" d="M397.7,327.6c-1.2-1.2-1.2-3,0-4.2s3-1.2,4.2,0s1.2,3,0,4.2C400.7,328.8,398.8,328.8,397.7,327.6z"
										/>
									<path fill="#418D85" d="M387.7,337.7c-1.2-1.2-1.2-3,0-4.2s3-1.2,4.2,0s1.2,3,0,4.2C390.7,338.9,388.8,338.9,387.7,337.7z"
										/>
									<path fill="#418D85" d="M377.6,347.8c-1.2-1.2-1.2-3,0-4.2s3-1.2,4.2,0s1.2,3,0,4.2C380.7,348.9,378.8,348.9,377.6,347.8z"
										/>
								</g>
								<g>
									<path fill="#418D85" d="M438.5,297.7c-1.2-1.2-1.2-3,0-4.2s3-1.2,4.2,0s1.2,3,0,4.2C441.5,298.8,439.6,298.8,438.5,297.7z"
										/>
									<circle fill="#418D85" cx="430.5" cy="305.6" r="3"/>
									<path fill="#418D85" d="M418.4,317.8c-1.2-1.2-1.2-3,0-4.2s3-1.2,4.2,0s1.2,3,0,4.2C421.5,318.9,419.6,318.9,418.4,317.8z"
										/>
									<path fill="#418D85" d="M408.4,327.8c-1.2-1.2-1.2-3,0-4.2s3-1.2,4.2,0s1.2,3,0,4.2C411.5,329,409.6,329,408.4,327.8z"/>
									<path fill="#418D85" d="M398.4,337.9c-1.2-1.2-1.2-3,0-4.2s3-1.2,4.2,0s1.2,3,0,4.2S399.6,339.1,398.4,337.9z"/>
									<path fill="#418D85" d="M388.4,348c-1.2-1.2-1.2-3,0-4.2s3-1.2,4.2,0s1.2,3,0,4.2C391.4,349.1,389.6,349.1,388.4,348z"/>
								</g>
								<g>
									<circle fill="#418D85" cx="440.9" cy="306.7" r="3"/>
									<circle fill="#418D85" cx="430.8" cy="316.8" r="3"/>
									<path fill="#418D85" d="M418.7,328.9c-1.2-1.2-1.2-3,0-4.2s3-1.2,4.2,0s1.2,3,0,4.2C421.8,330.1,419.9,330.1,418.7,328.9z"
										/>
									<path fill="#418D85" d="M408.7,339c-1.2-1.2-1.2-3,0-4.2s3-1.2,4.2,0s1.2,3,0,4.2C411.8,340.1,409.9,340.1,408.7,339z"/>
									<path fill="#418D85" d="M398.7,349c-1.2-1.2-1.2-3,0-4.2s3-1.2,4.2,0s1.2,3,0,4.2S399.9,350.2,398.7,349z"/>
								</g>
							</g>
						</g>
					</g>
				</g>
				<polygon fill="#3E877F" points="401.5,345.9 406.7,347.9 443.7,310.6 442.5,304.9 				"/>
			</g>
		</g>
	</g>
</g>
<g id="on">
	<g id="_x31_">
		<g id="_x31__1_">
			<g>
				<path fill="#1B1464" d="M405.3,348c0,0,151.9,133.3,153.8,135.1c1.9,1.9,11.1,8.6,22.6-2.7c11.4-11.3,4.3-19.8,2.7-21.4
					C582.8,457.5,447,307.3,447,307.3L405.3,348z"/>
				<polygon fill="#4BA59C" points="432.2,371.6 470.7,333.5 475.5,338.9 437.5,376.4 				"/>
				<path fill="#44978F" d="M479.8,371.3c5.1,5,6.9,11.3,4.1,14.1c-2.8,2.8-9.2,1-14.3-4c-5.1-5-6.9-11.3-4.1-14.1
					C468.3,364.5,474.8,366.3,479.8,371.3z"/>
				<path fill="#009245" d="M478.3,372.8c3.6,3.5,4.9,7.9,2.9,9.9c-2,1.9-6.5,0.7-10-2.8c-3.6-3.5-4.9-7.9-2.9-9.9
					S474.8,369.3,478.3,372.8z"/>
				<path fill="#44978F" d="M432.6,253.2c14.9,14.7,20,35.4,15.1,54.2c-0.1,0.2-0.1,0.4-0.2,0.6c-14.1,14-31.6,29.8-42.1,40.3
					c-18.7,4.3-39.1-0.7-53.7-15c-22.4-22.1-22.5-57.9-0.1-80C373.9,231.2,410.2,231.2,432.6,253.2z"/>
				<g>
					<g>
						<defs>
							<path id="SVGID_5_" d="M432.6,253.2c14.9,14.7,20,35.4,15.1,54.2c-0.1,0.2-0.1,0.4-0.2,0.6c-14.1,14-31.6,29.8-42.1,40.3
								c-18.7,4.3-39.1-0.7-53.7-15c-22.4-22.1-22.5-57.9-0.1-80C373.9,231.2,410.2,231.2,432.6,253.2z"/>
						</defs>
						<clipPath id="SVGID_6_">
							<use xlink:href="#SVGID_5_"  overflow="visible"/>
						</clipPath>
						<g clip-path="url(#SVGID_6_)">
							<polygon fill="#44978F" points="447.1,307.5 405.8,348.4 399.6,342.7 441.3,301.4 							"/>
							<polygon fill="#F7931E" points="334.4,341.8 438.8,238.6 453.4,252.9 349,356.1 							"/>
							<g>
								<g>
									<path fill="#418D85" d="M346.5,320.6c1.3,1.3,1.3,3.3,0,4.6c-1.3,1.3-3.3,1.3-4.6,0c-1.3-1.3-1.3-3.3,0-4.6
										C343.1,319.4,345.2,319.4,346.5,320.6z"/>
									<path fill="#418D85" d="M357.5,309.7c1.3,1.3,1.3,3.3,0,4.6c-1.3,1.3-3.3,1.3-4.6,0c-1.3-1.3-1.3-3.3,0-4.6
										C354.2,308.4,356.3,308.4,357.5,309.7z"/>
									<path fill="#418D85" d="M368.6,298.7c1.3,1.3,1.3,3.3,0,4.6c-1.3,1.3-3.3,1.3-4.6,0c-1.3-1.3-1.3-3.3,0-4.6
										C365.3,297.5,367.3,297.4,368.6,298.7z"/>
									<path fill="#418D85" d="M379.7,287.8c1.3,1.3,1.3,3.3,0,4.6c-1.3,1.3-3.3,1.3-4.6,0c-1.3-1.3-1.3-3.3,0-4.6
										C376.3,286.5,378.4,286.5,379.7,287.8z"/>
									<path fill="#418D85" d="M390.8,276.8c1.3,1.3,1.3,3.3,0,4.6c-1.3,1.3-3.4,1.3-4.6,0c-1.3-1.3-1.3-3.3,0-4.6
										C387.4,275.5,389.5,275.5,390.8,276.8z"/>
									<path fill="#418D85" d="M401.8,265.8c1.3,1.3,1.3,3.3,0,4.6c-1.3,1.3-3.3,1.3-4.6,0c-1.3-1.3-1.3-3.3,0-4.6
										C398.5,264.6,400.6,264.6,401.8,265.8z"/>
									<path fill="#418D85" d="M412.9,254.9c1.3,1.3,1.3,3.3,0,4.6c-1.3,1.3-3.3,1.3-4.6,0c-1.3-1.3-1.3-3.3,0-4.6
										C409.6,253.6,411.6,253.6,412.9,254.9z"/>
								</g>
								<g>
									<path fill="#418D85" d="M412.8,254.8c1.3,1.3,1.3,3.3,0,4.6s-3.3,1.3-4.6,0c-1.3-1.3-1.3-3.3,0-4.6
										C409.5,253.6,411.6,253.6,412.8,254.8z"/>
									<path fill="#418D85" d="M423.9,243.9c1.3,1.3,1.3,3.3,0,4.6s-3.3,1.3-4.6,0c-1.3-1.3-1.3-3.3,0-4.6
										C420.6,242.6,422.6,242.6,423.9,243.9z"/>
								</g>
								<g>
									<path fill="#418D85" d="M346.4,308c1.3,1.3,1.3,3.3,0,4.6c-1.3,1.3-3.3,1.3-4.6,0c-1.3-1.3-1.3-3.3,0-4.6
										C343.1,306.8,345.2,306.8,346.4,308z"/>
									<path fill="#418D85" d="M357.5,297.1c1.3,1.3,1.3,3.3,0,4.6c-1.3,1.3-3.3,1.3-4.6,0c-1.3-1.3-1.3-3.3,0-4.6
										C354.2,295.8,356.2,295.8,357.5,297.1z"/>
									<path fill="#418D85" d="M368.6,286.1c1.3,1.3,1.3,3.3,0,4.6c-1.3,1.3-3.3,1.3-4.6,0c-1.3-1.3-1.3-3.3,0-4.6
										C365.2,284.9,367.3,284.9,368.6,286.1z"/>
									<path fill="#418D85" d="M379.7,275.2c1.3,1.3,1.3,3.3,0,4.6c-1.3,1.3-3.3,1.3-4.6,0c-1.3-1.3-1.3-3.3,0-4.6
										C376.3,273.9,378.4,273.9,379.7,275.2z"/>
									<path fill="#418D85" d="M390.7,264.2c1.3,1.3,1.3,3.3,0,4.6c-1.3,1.3-3.4,1.3-4.6,0c-1.3-1.3-1.3-3.3,0-4.6
										C387.4,263,389.5,262.9,390.7,264.2z"/>
									<path fill="#418D85" d="M401.8,253.3c1.3,1.3,1.3,3.3,0,4.6s-3.3,1.3-4.6,0c-1.3-1.3-1.3-3.3,0-4.6
										C398.5,252,400.5,252,401.8,253.3z"/>
									<path fill="#418D85" d="M412.9,242.3c1.3,1.3,1.3,3.3,0,4.6s-3.3,1.3-4.6,0c-1.3-1.3-1.3-3.3,0-4.6
										C409.5,241,411.6,241,412.9,242.3z"/>
								</g>
								<g>
									<path fill="#418D85" d="M345.6,296.8c1.3,1.3,1.3,3.3,0,4.6c-1.3,1.3-3.4,1.3-4.6,0c-1.3-1.3-1.3-3.3,0-4.6
										C342.3,295.6,344.3,295.6,345.6,296.8z"/>
									<path fill="#418D85" d="M356.7,285.9c1.3,1.3,1.3,3.3,0,4.6c-1.3,1.3-3.4,1.3-4.6,0c-1.3-1.3-1.3-3.3,0-4.6
										C353.3,284.6,355.4,284.6,356.7,285.9z"/>
									<path fill="#418D85" d="M367.8,274.9c1.3,1.3,1.3,3.3,0,4.6c-1.3,1.3-3.3,1.3-4.6,0c-1.3-1.3-1.3-3.3,0-4.6
										C364.4,273.7,366.5,273.7,367.8,274.9z"/>
									<path fill="#418D85" d="M378.8,264c1.3,1.3,1.3,3.3,0,4.6c-1.3,1.3-3.3,1.3-4.6,0c-1.3-1.3-1.3-3.3,0-4.6
										C375.5,262.7,377.6,262.7,378.8,264z"/>
									<path fill="#418D85" d="M389.9,253c1.3,1.3,1.3,3.3,0,4.6c-1.3,1.3-3.3,1.3-4.6,0c-1.3-1.3-1.3-3.3,0-4.6
										C386.6,251.8,388.6,251.8,389.9,253z"/>
									<path fill="#418D85" d="M401,242.1c1.3,1.3,1.3,3.3,0,4.6s-3.3,1.3-4.6,0c-1.3-1.3-1.3-3.3,0-4.6
										C397.6,240.8,399.7,240.8,401,242.1z"/>
								</g>
								<g>
									<path fill="#418D85" d="M334.2,295.7c1.3,1.3,1.3,3.3,0,4.6c-1.3,1.3-3.4,1.3-4.6,0c-1.3-1.3-1.3-3.3,0-4.6
										C330.8,294.4,332.9,294.4,334.2,295.7z"/>
									<path fill="#418D85" d="M345.3,284.7c1.3,1.3,1.3,3.3,0,4.6c-1.3,1.3-3.3,1.3-4.6,0c-1.3-1.3-1.3-3.3,0-4.6
										C341.9,283.5,344,283.5,345.3,284.7z"/>
									<path fill="#418D85" d="M356.4,273.8c1.3,1.3,1.3,3.3,0,4.6c-1.3,1.3-3.3,1.3-4.6,0c-1.3-1.3-1.3-3.3,0-4.6
										C353,272.5,355.1,272.5,356.4,273.8z"/>
									<path fill="#418D85" d="M367.4,262.8c1.3,1.3,1.3,3.3,0,4.6c-1.3,1.3-3.4,1.3-4.6,0c-1.3-1.3-1.3-3.3,0-4.6
										C364.1,261.6,366.1,261.6,367.4,262.8z"/>
									<path fill="#418D85" d="M378.5,251.9c1.3,1.3,1.3,3.3,0,4.6c-1.3,1.3-3.3,1.3-4.6,0c-1.3-1.3-1.3-3.3,0-4.6
										C375.2,250.6,377.2,250.6,378.5,251.9z"/>
									<path fill="#418D85" d="M389.6,240.9c1.3,1.3,1.3,3.3,0,4.6s-3.3,1.3-4.6,0c-1.3-1.3-1.3-3.3,0-4.6
										C386.2,239.7,388.3,239.7,389.6,240.9z"/>
								</g>
								<g>
									<path fill="#418D85" d="M344.5,273.6c1.3,1.3,1.3,3.3,0,4.6c-1.3,1.3-3.3,1.3-4.6,0c-1.3-1.3-1.3-3.3,0-4.6
										C341.1,272.3,343.2,272.3,344.5,273.6z"/>
									<path fill="#418D85" d="M355.5,262.6c1.3,1.3,1.3,3.3,0,4.6c-1.3,1.3-3.3,1.3-4.6,0c-1.3-1.3-1.3-3.3,0-4.6
										C352.2,261.3,354.3,261.3,355.5,262.6z"/>
									<path fill="#418D85" d="M366.6,251.6c1.3,1.3,1.3,3.3,0,4.6c-1.3,1.3-3.4,1.3-4.6,0c-1.3-1.3-1.3-3.3,0-4.6
										C363.3,250.4,365.3,250.4,366.6,251.6z"/>
									<path fill="#418D85" d="M377.7,240.7c1.3,1.3,1.3,3.3,0,4.6s-3.4,1.3-4.6,0c-1.3-1.3-1.3-3.3,0-4.6
										C374.3,239.4,376.4,239.4,377.7,240.7z"/>
								</g>
								<g>
									<path fill="#418D85" d="M344.6,262.1c1.3,1.3,1.3,3.3,0,4.6c-1.3,1.3-3.4,1.3-4.6,0c-1.3-1.3-1.3-3.3,0-4.6
										C341.2,260.8,343.3,260.8,344.6,262.1z"/>
									<path fill="#418D85" d="M355.7,251.1c1.3,1.3,1.3,3.3,0,4.6c-1.3,1.3-3.4,1.3-4.6,0c-1.3-1.3-1.3-3.3,0-4.6
										C352.3,249.9,354.4,249.9,355.7,251.1z"/>
									<path fill="#418D85" d="M366.7,240.2c1.3,1.3,1.3,3.3,0,4.6s-3.3,1.3-4.6,0c-1.3-1.3-1.3-3.3,0-4.6
										S365.5,238.9,366.7,240.2z"/>
								</g>
							</g>
							<g>
								<g>
									<path fill="#418D85" d="M443.1,272.5c-1.3-1.3-1.3-3.3,0-4.6c1.3-1.3,3.3-1.3,4.6,0c1.3,1.3,1.3,3.3,0,4.6
										C446.4,273.8,444.4,273.8,443.1,272.5z"/>
									<path fill="#418D85" d="M432,283.5c-1.3-1.3-1.3-3.3,0-4.6c1.3-1.3,3.4-1.3,4.6,0c1.3,1.3,1.3,3.3,0,4.6
										C435.4,284.7,433.3,284.7,432,283.5z"/>
									<path fill="#418D85" d="M420.9,294.4c-1.3-1.3-1.3-3.3,0-4.6c1.3-1.3,3.4-1.3,4.6,0c1.3,1.3,1.3,3.3,0,4.6
										C424.3,295.7,422.2,295.7,420.9,294.4z"/>
									<path fill="#418D85" d="M409.9,305.4c-1.3-1.3-1.3-3.3,0-4.6c1.3-1.3,3.3-1.3,4.6,0c1.3,1.3,1.3,3.3,0,4.6
										C413.2,306.6,411.1,306.6,409.9,305.4z"/>
									<path fill="#418D85" d="M398.8,316.3c-1.3-1.3-1.3-3.3,0-4.6c1.3-1.3,3.3-1.3,4.6,0c1.3,1.3,1.3,3.3,0,4.6
										S400.1,317.6,398.8,316.3z"/>
									<path fill="#418D85" d="M387.7,327.3c-1.3-1.3-1.3-3.3,0-4.6c1.3-1.3,3.4-1.3,4.6,0c1.3,1.3,1.3,3.3,0,4.6
										C391.1,328.5,389,328.6,387.7,327.3z"/>
									<path fill="#418D85" d="M376.6,338.2c-1.3-1.3-1.3-3.3,0-4.6c1.3-1.3,3.3-1.3,4.6,0c1.3,1.3,1.3,3.3,0,4.6
										C380,339.5,377.9,339.5,376.6,338.2z"/>
								</g>
								<g>
									<path fill="#418D85" d="M376.7,338.3c-1.3-1.3-1.3-3.3,0-4.6c1.3-1.3,3.3-1.3,4.6,0c1.3,1.3,1.3,3.3,0,4.6
										C380.1,339.6,378,339.6,376.7,338.3z"/>
									<path fill="#418D85" d="M365.6,349.3c-1.3-1.3-1.3-3.3,0-4.6c1.3-1.3,3.4-1.3,4.6,0c1.3,1.3,1.3,3.3,0,4.6
										C369,350.5,366.9,350.5,365.6,349.3z"/>
								</g>
								<g>
									<path fill="#418D85" d="M443.1,285.1c-1.3-1.3-1.3-3.3,0-4.6c1.3-1.3,3.3-1.3,4.6,0c1.3,1.3,1.3,3.3,0,4.6
										C446.5,286.4,444.4,286.4,443.1,285.1z"/>
									<path fill="#418D85" d="M432,296.1c-1.3-1.3-1.3-3.3,0-4.6c1.3-1.3,3.4-1.3,4.6,0c1.3,1.3,1.3,3.3,0,4.6
										C435.4,297.3,433.3,297.3,432,296.1z"/>
									<path fill="#418D85" d="M421,307c-1.3-1.3-1.3-3.3,0-4.6c1.3-1.3,3.3-1.3,4.6,0c1.3,1.3,1.3,3.3,0,4.6
										C424.3,308.3,422.2,308.3,421,307z"/>
									<path fill="#418D85" d="M409.9,318c-1.3-1.3-1.3-3.3,0-4.6c1.3-1.3,3.3-1.3,4.6,0c1.3,1.3,1.3,3.3,0,4.6
										C413.2,319.2,411.2,319.2,409.9,318z"/>
									<path fill="#418D85" d="M398.8,328.9c-1.3-1.3-1.3-3.3,0-4.6c1.3-1.3,3.3-1.3,4.6,0c1.3,1.3,1.3,3.3,0,4.6
										C402.2,330.2,400.1,330.2,398.8,328.9z"/>
									<path fill="#418D85" d="M387.7,339.9c-1.3-1.3-1.3-3.3,0-4.6c1.3-1.3,3.3-1.3,4.6,0c1.3,1.3,1.3,3.3,0,4.6
										C391.1,341.1,389,341.1,387.7,339.9z"/>
									<path fill="#418D85" d="M376.7,350.8c-1.3-1.3-1.3-3.3,0-4.6c1.3-1.3,3.3-1.3,4.6,0c1.3,1.3,1.3,3.3,0,4.6
										C380,352.1,377.9,352.1,376.7,350.8z"/>
								</g>
								<g>
									<path fill="#418D85" d="M443.9,296.3c-1.3-1.3-1.3-3.3,0-4.6c1.3-1.3,3.3-1.3,4.6,0c1.3,1.3,1.3,3.3,0,4.6
										C447.3,297.5,445.2,297.5,443.9,296.3z"/>
									<path fill="#418D85" d="M432.9,307.2c-1.3-1.3-1.3-3.3,0-4.6c1.3-1.3,3.4-1.3,4.6,0c1.3,1.3,1.3,3.3,0,4.6
										C436.2,308.5,434.1,308.5,432.9,307.2z"/>
									<path fill="#418D85" d="M421.8,318.2c-1.3-1.3-1.3-3.3,0-4.6c1.3-1.3,3.3-1.3,4.6,0c1.3,1.3,1.3,3.3,0,4.6
										C425.1,319.5,423.1,319.5,421.8,318.2z"/>
									<path fill="#418D85" d="M410.7,329.2c-1.3-1.3-1.3-3.3,0-4.6c1.3-1.3,3.3-1.3,4.6,0c1.3,1.3,1.3,3.3,0,4.6
										C414.1,330.4,412,330.4,410.7,329.2z"/>
									<path fill="#418D85" d="M399.6,340.1c-1.3-1.3-1.3-3.3,0-4.6c1.3-1.3,3.4-1.3,4.6,0c1.3,1.3,1.3,3.3,0,4.6
										C403,341.4,400.9,341.4,399.6,340.1z"/>
									<path fill="#418D85" d="M388.5,351.1c-1.3-1.3-1.3-3.3,0-4.6c1.3-1.3,3.3-1.3,4.6,0c1.3,1.3,1.3,3.3,0,4.6
										C391.9,352.3,389.8,352.3,388.5,351.1z"/>
								</g>
								<g>
									<path fill="#418D85" d="M444.3,308.4c-1.3-1.3-1.3-3.3,0-4.6c1.3-1.3,3.3-1.3,4.6,0c1.3,1.3,1.3,3.3,0,4.6
										S445.6,309.7,444.3,308.4z"/>
									<path fill="#418D85" d="M433.2,319.4c-1.3-1.3-1.3-3.3,0-4.6c1.3-1.3,3.3-1.3,4.6,0c1.3,1.3,1.3,3.3,0,4.6
										C436.5,320.6,434.5,320.6,433.2,319.4z"/>
									<path fill="#418D85" d="M422.1,330.3c-1.3-1.3-1.3-3.3,0-4.6c1.3-1.3,3.4-1.3,4.6,0c1.3,1.3,1.3,3.3,0,4.6
										C425.5,331.6,423.4,331.6,422.1,330.3z"/>
									<path fill="#418D85" d="M411,341.3c-1.3-1.3-1.3-3.3,0-4.6c1.3-1.3,3.3-1.3,4.6,0c1.3,1.3,1.3,3.3,0,4.6
										C414.4,342.5,412.3,342.5,411,341.3z"/>
									<path fill="#418D85" d="M400,352.2c-1.3-1.3-1.3-3.3,0-4.6c1.3-1.3,3.3-1.3,4.6,0c1.3,1.3,1.3,3.3,0,4.6
										C403.3,353.5,401.2,353.5,400,352.2z"/>
								</g>
							</g>
						</g>
					</g>
				</g>
				<polygon fill="#3E877F" points="403,348.8 408.8,351 449.7,310.4 448.4,304.2 				"/>
			</g>
		</g>
	</g>
</g>
</svg>
